<?xml version="1.0" standalone="no"?>
<!DOCTYPE svg PUBLIC "-//W3C//DTD SVG 20010904//EN"
 "http://www.w3.org/TR/2001/REC-SVG-20010904/DTD/svg10.dtd">
<svg version="1.0" xmlns="http://www.w3.org/2000/svg"
 width="1600.000000pt" height="1000.000000pt" viewBox="0 0 1600.000000 1000.000000"
 preserveAspectRatio="xMidYMid meet">

<g transform="translate(0.000000,1000.000000) scale(0.100000,-0.100000)"
fill="#000000" stroke="none">
<path d="M8980 8630 c-70 -7 -817 -22 -1943 -38 l-489 -7 -23 -27 c-35 -40
-64 -129 -80 -242 -26 -181 -15 -545 18 -616 12 -25 46 -36 177 -54 l45 -6 0
-1198 c0 -658 4 -1357 8 -1552 18 -863 36 -1261 58 -1302 23 -43 140 -80 314
-99 110 -12 721 -4 1465 21 556 19 542 16 575 86 70 147 83 543 25 770 -27
107 -45 129 -101 128 -24 0 -222 -6 -439 -12 -217 -7 -517 -13 -667 -15 l-271
-3 -6 160 c-3 89 -8 328 -12 532 l-6 371 32 7 c18 3 105 6 194 6 270 0 587 18
613 35 30 20 59 79 80 162 23 90 25 491 4 598 -16 83 -47 169 -65 184 -9 8
-73 8 -222 1 -115 -5 -304 -11 -421 -14 l-211 -5 4 282 c2 155 7 409 10 565
l6 282 178 0 c208 0 807 17 1069 30 215 10 218 12 252 119 54 176 48 600 -12
771 -17 50 -48 90 -67 88 -9 -1 -51 -4 -92 -8z"/>
<path d="M11560 8630 c-214 -11 -306 -23 -449 -59 -698 -177 -1117 -664 -1315
-1526 -47 -205 -89 -531 -106 -828 -34 -593 24 -1120 169 -1526 232 -651 696
-1032 1441 -1184 69 -14 157 -31 196 -36 371 -55 1030 -55 1639 -1 322 28 623
64 646 75 39 21 99 92 124 149 36 80 55 196 55 326 0 124 -21 263 -47 313 -17
34 29 35 -383 -8 -580 -60 -908 -80 -1175 -71 -582 21 -962 153 -1215 422
-176 188 -276 420 -327 761 -22 152 -25 769 -5 963 44 412 120 727 235 972 93
200 221 359 330 412 84 41 171 47 710 45 414 -1 501 1 512 12 8 8 22 43 32 79
26 94 25 426 -1 520 -22 81 -57 142 -97 171 -31 22 -37 22 -418 25 -212 1
-460 -1 -551 -6z"/>
<path d="M13120 8634 c-90 -8 -179 -26 -188 -37 -15 -19 -21 -56 -32 -196 -20
-263 -25 -654 -25 -1826 0 -1281 8 -1924 25 -1955 17 -32 92 -69 175 -86 61
-13 115 -15 239 -11 225 6 413 45 489 99 l30 21 -8 444 -7 443 129 1 c70 0
313 6 538 13 226 7 413 11 416 10 3 -2 9 -189 13 -416 12 -693 32 -1335 46
-1473 9 -91 18 -101 106 -134 90 -34 188 -46 384 -45 201 0 333 18 421 56 66
28 71 41 55 124 -19 90 -34 282 -47 579 -17 392 -22 2201 -10 3262 13 1115 19
1023 -72 1066 -97 46 -208 61 -457 62 -230 0 -346 -13 -375 -41 -34 -35 -46
-306 -52 -1230 l-5 -841 -127 -7 c-69 -3 -314 -9 -544 -12 l-419 -7 6 349 c15
934 18 1622 6 1658 -27 84 -177 125 -475 130 -104 2 -210 2 -235 0z"/>
<path d="M1720 6335 l0 -675 -680 0 -680 0 0 -210 0 -210 678 -2 677 -3 3
-672 2 -673 210 0 210 0 2 673 3 672 683 3 682 2 -2 208 -3 207 -682 3 -683 2
0 675 0 675 -210 0 -210 0 0 -675z"/>
<path d="M8430 2663 c3 -114 -8 -705 -13 -710 -4 -3 -7 -2 -7 4 0 17 -90 113
-129 137 -58 36 -130 57 -221 63 -292 18 -517 -160 -601 -477 -19 -72 -23
-111 -23 -255 0 -190 15 -267 77 -394 39 -81 142 -188 214 -225 145 -73 333
-76 478 -7 70 33 149 101 185 160 14 22 27 41 30 41 3 0 5 -48 5 -107 l0 -108
113 -3 112 -3 0 946 0 945 -110 0 c-60 0 -110 -3 -110 -7z m-215 -723 c111
-53 188 -166 207 -303 16 -112 4 -340 -22 -418 -68 -204 -236 -313 -426 -278
-202 37 -314 214 -314 499 0 130 19 224 64 315 76 154 181 217 351 212 71 -2
101 -8 140 -27z"/>
<path d="M1622 2543 c-9 -24 -649 -1699 -667 -1746 -7 -16 1 -17 121 -15 l128
3 72 205 c40 113 77 217 83 233 l10 27 382 -2 382 -3 86 -232 86 -233 127 0
126 0 -64 168 c-35 92 -189 494 -341 894 l-278 728 -122 0 -121 0 -10 -27z
m138 -255 c0 -10 61 -185 136 -390 75 -205 142 -390 150 -410 l13 -38 -311 0
c-291 0 -310 1 -303 18 4 9 36 96 70 192 35 96 98 270 139 385 42 116 79 227
83 248 4 26 8 34 14 25 5 -7 9 -21 9 -30z"/>
<path d="M3968 2150 c-250 -45 -427 -209 -504 -465 -24 -81 -27 -106 -28 -250
-1 -182 10 -241 71 -365 49 -101 151 -203 254 -254 162 -79 372 -88 548 -25
55 20 141 67 141 76 0 3 -21 38 -46 78 l-46 73 -57 -28 c-103 -52 -202 -66
-306 -45 -169 36 -281 155 -320 342 -18 84 -19 238 -1 319 32 150 125 277 239
330 58 27 70 29 192 29 135 0 134 0 271 -61 10 -5 111 144 102 150 -89 62
-209 97 -348 102 -63 1 -136 -1 -162 -6z"/>
<path d="M5785 2149 c-114 -19 -250 -83 -335 -157 l-45 -39 58 -67 c33 -36 61
-66 63 -66 3 0 27 18 55 40 172 136 408 157 526 48 39 -37 65 -107 71 -194 l5
-81 -204 -27 c-112 -15 -231 -35 -264 -43 -145 -39 -253 -120 -308 -232 -31
-63 -32 -71 -32 -186 0 -109 2 -125 27 -177 70 -149 224 -229 418 -215 134 9
254 80 330 195 l30 45 0 -106 0 -107 110 0 110 0 0 493 c0 532 -3 564 -55 668
-54 106 -151 177 -282 204 -74 16 -199 18 -278 4z m393 -816 c-3 -113 -7 -135
-31 -187 -42 -90 -88 -140 -164 -178 -151 -74 -319 -36 -374 86 -19 42 -25
134 -12 197 10 54 77 111 158 137 54 17 325 64 414 71 11 1 13 -23 9 -126z"/>
<path d="M10205 2154 c-11 -2 -40 -10 -65 -16 -74 -18 -177 -77 -236 -135 -98
-97 -158 -213 -190 -366 -23 -115 -15 -351 16 -457 41 -143 121 -257 232 -333
156 -107 435 -128 653 -50 97 35 197 92 188 107 -5 6 -27 41 -51 77 l-42 66
-88 -43 c-211 -105 -438 -88 -567 41 -72 72 -111 169 -128 323 l-5 42 459 0
459 0 0 128 c0 201 -47 351 -144 459 -96 107 -202 152 -366 158 -58 2 -114 2
-125 -1z m239 -208 c97 -47 159 -155 172 -296 l7 -70 -348 0 -348 0 6 44 c16
114 100 253 182 301 107 63 227 71 329 21z"/>
<path d="M12402 2150 c-96 -21 -190 -83 -257 -172 l-45 -60 0 106 0 106 -110
0 -110 0 0 -675 0 -675 110 0 110 0 0 425 c0 446 3 490 46 580 56 120 149 185
263 185 37 0 83 -5 104 -11 56 -15 129 -91 158 -164 24 -60 24 -62 27 -537 l3
-478 109 0 109 0 4 433 c4 469 5 481 63 587 34 63 120 144 170 160 22 8 68 11
114 8 131 -8 191 -59 236 -198 15 -48 18 -113 22 -522 l4 -468 109 0 109 0 0
469 c0 500 -4 551 -51 676 -31 83 -122 174 -203 204 -117 43 -271 38 -382 -13
-76 -35 -130 -81 -184 -158 l-47 -66 -26 54 c-39 78 -99 139 -174 175 -52 25
-79 31 -151 34 -48 2 -106 0 -130 -5z"/>
<path d="M14670 2125 c0 -6 101 -270 369 -964 l140 -364 -61 -150 c-70 -169
-103 -220 -168 -255 -39 -21 -55 -23 -122 -20 l-77 5 -20 -86 c-13 -56 -16
-89 -10 -96 6 -6 60 -10 122 -10 130 1 192 20 268 82 106 88 145 159 289 533
110 282 310 799 434 1120 42 107 76 198 76 202 0 5 -51 8 -112 8 l-113 0 -178
-499 c-99 -274 -186 -524 -195 -555 -8 -31 -19 -56 -23 -56 -4 0 -10 16 -14
37 -3 20 -56 181 -117 357 -60 177 -132 386 -160 466 -27 80 -57 168 -67 195
l-19 50 -121 3 c-66 1 -121 0 -121 -3z"/>
</g>
</svg>
